<svg xmlns="http://www.w3.org/2000/svg" id="ab03870f-e999-49c0-989a-dd3dcf1198ff" data-name="Layer 1" width="906.38778" height="200" viewBox="0 0 906.38778 200"><title>completed_steps</title><rect x="2.10258" y="70.0398" width="689.99951" height="2" fill="#3f3d56"/><rect x="44.26101" y="111.88979" width="179.12676" height="2.01266" fill="#3f3d56"/><rect x="44.26101" y="125.97841" width="179.12676" height="2.01266" fill="#3f3d56"/><rect x="44.26101" y="140.06703" width="179.12676" height="2.01266" fill="#3f3d56"/><rect x="47.90401" y="61.33568" width="40.29028" height="32.73585" fill="#d0cde1"/><path d="M229.12473,268.77083h-41.969V234.35622h41.969Zm-40.29028-1.67876H227.446V236.035H188.83445Z" transform="translate(-146.80611 -179.73559)" fill="#3f3d56"/><circle cx="8" cy="72.17862" r="8" fill="#ffc451"/><rect x="727.26101" y="111.88979" width="179.12676" height="2.01266" fill="#3f3d56"/><rect x="727.26101" y="125.97841" width="179.12676" height="2.01266" fill="#3f3d56"/><rect x="727.26101" y="140.06703" width="179.12676" height="2.01266" fill="#3f3d56"/><rect x="730.90401" y="61.33568" width="40.29028" height="32.73585" fill="#d0cde1"/><path d="M912.12473,268.77083h-41.969V234.35622h41.969Zm-40.29028-1.67876H910.446V236.035H871.83445Z" transform="translate(-146.80611 -179.73559)" fill="#3f3d56"/><circle cx="691" cy="72.17862" r="8" fill="#ffc451"/><rect x="386.26101" y="28.17724" width="179.12676" height="2.01266" fill="#3f3d56"/><rect x="386.26101" y="14.08862" width="179.12676" height="2.01266" fill="#3f3d56"/><rect x="386.26101" width="179.12676" height="2.01266" fill="#3f3d56"/><rect x="389.90401" y="48.00816" width="40.29028" height="32.73585" fill="#d0cde1"/><path d="M571.12473,267.19465h-41.969V232.78h41.969Zm-40.29028-1.67876H569.446V234.4588H530.83445Z" transform="translate(-146.80611 -179.73559)" fill="#3f3d56"/><circle cx="350" cy="69.90107" r="8" fill="#ffc451"/><circle cx="134.10236" cy="70.03985" r="18" fill="#fff"/><path d="M280.89273,229.50082a19.91339,19.91339,0,1,0,19.91338,19.91339A19.91338,19.91338,0,0,0,280.89273,229.50082Zm-3.43514,28.82458-8.56562-8.56567,2.40259-2.40256,6.1711,6.17113L290.49094,240.503l2.40254,2.40258Z" transform="translate(-146.80611 -179.73559)" fill="#ffc451"/></svg>