<svg xmlns="http://www.w3.org/2000/svg" xmlns:xlink="http://www.w3.org/1999/xlink" id="c72640af-2824-4ace-a782-4df73f48977c" data-name="Layer 1" width="1143.14" height="862.91" viewBox="0 0 1143.14 862.91"><defs><linearGradient id="969f2d34-5bff-4fc3-8c31-c6509eddc389" x1="551.46" y1="688.44" x2="551.46" y2="150.11" gradientUnits="userSpaceOnUse"><stop offset="0" stop-color="gray" stop-opacity="0.25"/><stop offset="0.54" stop-color="gray" stop-opacity="0.12"/><stop offset="1" stop-color="gray" stop-opacity="0.1"/></linearGradient><linearGradient id="488cd128-ff9c-494f-bd41-35fb6c1caf21" x1="1059.46" y1="856.62" x2="1059.46" y2="468.94" xlink:href="#969f2d34-5bff-4fc3-8c31-c6509eddc389"/><linearGradient id="ccb18d0b-874b-442a-b8cb-57bcf76cdeb5" x1="814.74" y1="881.34" x2="814.74" y2="496.8" gradientTransform="matrix(-1, -0.04, -0.04, 1, 1070.86, 21.29)" xlink:href="#969f2d34-5bff-4fc3-8c31-c6509eddc389"/></defs><title>content</title><path d="M620.4,156c-71.4,11.91-142.91,5.5-211.75-3.38s-137.52-20.22-209.07-18c-46,1.44-97.17,10.48-129,38.22-30.62,26.69-35,63.18-34.71,96.18.22,24.82,2.55,50.53,19.36,70.49,11.67,13.85,29.51,23.91,43,36.72,47,44.58,33.67,113.64,3.91,172.12-14,27.44-31.11,54.37-40.5,82.5S51.32,689.28,69,712.57c17.54,23.09,51.09,36.39,86,43.52,70.89,14.47,149.57,7,225.67-3.39,168.44-23.11,335-60.49,501.08-97.8,61.47-13.8,123.21-27.68,182.35-48,32.84-11.26,66.25-25.43,87.28-47.84,26.69-28.45,26.93-67.72.56-91.54-44.24-40-143.21-32.48-177.6-78-18.94-25-11.23-58.62,3.24-88.17,31-63.4,91.75-125.65,83-189.36-6-43.76-48.38-80.4-104.68-90.53-59-10.61-134.41,7.11-167.78,50.62C753.76,117,683.44,145.5,620.4,156Z" transform="translate(-28.43 -18.54)" fill="#ffc451" opacity="0.1"/><rect x="76.29" y="150.11" width="950.33" height="538.33" rx="12.49" ry="12.49" fill="url(#969f2d34-5bff-4fc3-8c31-c6509eddc389)"/><rect x="77.8" y="157.68" width="947.42" height="528.97" rx="12.49" ry="12.49" fill="#fff"/><rect x="77.8" y="157.68" width="947.42" height="528.97" rx="12.49" ry="12.49" fill="#fff"/><rect x="77.8" y="157.68" width="947.42" height="528.97" rx="12.49" ry="12.49" fill="#343a40" opacity="0.04"/><path d="M1048.84,170.15H111a4.81,4.81,0,0,0-4.81,4.81V195.3h947.42V175A4.81,4.81,0,0,0,1048.84,170.15Z" transform="translate(-28.43 -18.54)" fill="#343a40"/><g id="83eb5f8b-b68b-4721-b047-6100bc74156f" data-name="buttons"><circle cx="96.72" cy="164.18" r="6.5" fill="#fff"/><circle cx="114.22" cy="164.18" r="6.5" fill="#fff"/><circle cx="131.72" cy="164.18" r="6.5" fill="#fff"/></g><rect x="141.22" y="293.86" width="790" height="392.78" rx="10.19" ry="10.19" fill="#fff"/><rect x="107.72" y="203.45" width="227.24" height="23.85" rx="3.86" ry="3.86" fill="#343a40" opacity="0.2"/><rect x="536.22" y="339.45" width="227.24" height="23.85" rx="3.86" ry="3.86" fill="#ffc451" opacity="0.2"/><rect x="536.22" y="406.23" width="354.83" height="23.85" rx="3.86" ry="3.86" fill="#ffc451" opacity="0.2"/><rect x="536.22" y="445.23" width="354.83" height="23.85" rx="3.86" ry="3.86" fill="#ffc451" opacity="0.2"/><rect x="536.22" y="484.23" width="354.83" height="23.85" rx="3.86" ry="3.86" fill="#ffc451" opacity="0.2"/><rect x="536.22" y="523.23" width="354.83" height="23.85" rx="3.86" ry="3.86" fill="#ffc451" opacity="0.2"/><rect x="184.05" y="566.23" width="707" height="23.85" rx="3.86" ry="3.86" fill="#ffc451" opacity="0.2"/><rect x="184.05" y="605.23" width="707" height="23.85" rx="3.86" ry="3.86" fill="#ffc451" opacity="0.2"/><rect x="184.05" y="644.23" width="707" height="23.85" rx="3.86" ry="3.86" fill="#ffc451" opacity="0.2"/><path d="M757.73,678.54a9.6,9.6,0,0,1,1.21,2.43c10.39,12.2,15.92,23.59,5.94,23.87-9.3.27-20.46,16.9-23.13,21.09a7.72,7.72,0,0,0,.32,1s13.07-21.74,23.72-22S769.44,691.61,757.73,678.54Z" transform="translate(-28.43 -18.54)" opacity="0.1"/><rect x="184.05" y="326.22" width="302" height="221.54" rx="8.5" ry="8.5" fill="#ffc451" opacity="0.2"/><path d="M1001.15,597.33l-5.37,3.7s-8.21.26-14.08-1.18a16.24,16.24,0,0,1-3.05-1l.06-.29,0-.06a40,40,0,0,1,2.08-6.6c.34-.81.72-1.64,1.14-2.47,1.61-3.1,3.88-6.15,7-7.65a9.49,9.49,0,0,1,3.67-1h.49l.18.37,2.72,5.6Z" transform="translate(-28.43 -18.54)" opacity="0.1"/><path d="M1026.88,547.9s4.07,1.85,5,4.44S1026.88,547.9,1026.88,547.9Z" transform="translate(-28.43 -18.54)" opacity="0.1"/><path d="M1014.29,575.67s-5.92,7.22-3.52,10S1014.29,575.67,1014.29,575.67Z" transform="translate(-28.43 -18.54)" opacity="0.1"/><rect x="849.12" y="551.42" width="181.18" height="208.22" rx="6.61" ry="6.61" fill="#fff"/><rect x="849.12" y="551.42" width="181.18" height="208.22" rx="6.61" ry="6.61" fill="#343a40" opacity="0.1"/><rect x="858.36" y="562.04" width="162.7" height="186.98" rx="6.61" ry="6.61" fill="#fff"/><rect x="882.03" y="599.54" width="111.62" height="38.52" rx="6.03" ry="6.03" fill="#ffc451"/><rect x="886.13" y="652.15" width="103.43" height="7.86" fill="#ffc451"/><rect x="868.55" y="668.74" width="142.32" height="7.86" fill="#ffc451"/><rect x="868.55" y="686.2" width="142.32" height="7.86" fill="#ffc451"/><rect x="868.55" y="703.66" width="142.32" height="7.86" fill="#ffc451"/><rect y="482.59" width="426.61" height="208.22" rx="6.61" ry="6.61" fill="#fff"/><rect y="482.59" width="426.61" height="208.22" rx="6.61" ry="6.61" fill="#343a40" opacity="0.1"/><rect x="21.76" y="493.21" width="383.08" height="186.98" rx="6.61" ry="6.61" fill="#fff"/><rect x="77.51" y="530.72" width="262.81" height="38.52" rx="6.03" ry="6.03" fill="#ffc451"/><rect x="87.15" y="583.32" width="243.53" height="7.86" fill="#ffc451"/><rect x="45.75" y="599.91" width="335.1" height="7.86" fill="#ffc451"/><rect x="45.75" y="617.37" width="335.1" height="7.86" fill="#ffc451"/><rect x="45.75" y="634.83" width="335.1" height="7.86" fill="#ffc451"/></svg>