<svg xmlns="http://www.w3.org/2000/svg" xmlns:xlink="http://www.w3.org/1999/xlink" id="ebf8a77a-edff-4dc3-b5b4-de0e5991af45" data-name="Layer 1" width="1084.99" height="822.75" viewBox="0 0 1084.99 822.75"><defs><linearGradient id="3dbb7376-c47c-4ca7-b468-761ae3cf9a96" x1="609.82" y1="674.04" x2="609.82" y2="135.71" gradientUnits="userSpaceOnUse"><stop offset="0" stop-color="gray" stop-opacity="0.25"/><stop offset="0.54" stop-color="gray" stop-opacity="0.12"/><stop offset="1" stop-color="gray" stop-opacity="0.1"/></linearGradient><linearGradient id="9599d617-6377-49c4-b753-a452dc901e54" x1="629.86" y1="815.18" x2="629.86" y2="282.75" gradientTransform="translate(-20.86 21.29) rotate(-2.2)" xlink:href="#3dbb7376-c47c-4ca7-b468-761ae3cf9a96"/></defs><title>setup analytics</title><path d="M221.63,210.59l.46-.36c37.17,22.31,89.46,17,89.92,17l-5.77,6.55C305.78,233.81,259.06,233.05,221.63,210.59Z" transform="translate(-57.5 -38.62)" fill="#444053"/><path d="M197.4,212.84s11.23-11.15,8.1-13.2" transform="translate(-57.5 -38.62)" fill="none" stroke="#444053" stroke-miterlimit="10"/><path d="M210.23,228.68s28-3.75,31,3.56" transform="translate(-57.5 -38.62)" fill="none" stroke="#444053" stroke-miterlimit="10"/><path d="M568.79,236c-54.87,27.61-114.88,39.65-173.39,48.93s-117.57,16.43-175.23,35.83c-37.08,12.48-76.27,32.69-94.55,64.09C108,415,114.51,447.15,123.83,475.17c7,21.07,16,42.39,35.16,55.27,13.32,8.94,30.61,13.13,45.13,20.74,50.51,26.45,58.7,88.49,50.56,145.56-3.82,26.77-10.38,53.89-10.29,80.13s7.66,52.24,28.48,67.74c20.64,15.36,51.63,18.48,82,16,61.71-5,123.76-30.59,182.86-58.09C668.59,741.65,793.94,669.08,919,596.69c46.26-26.79,92.73-53.71,135.32-85.44,23.65-17.62,47-37.86,57.92-62.08,13.91-30.74,3.3-64.23-24.74-78.06-47-23.2-125.58,7.39-166.11-22.91C899,331.52,896.08,301,899.73,272.35c7.82-61.56,40.14-129.41,15.47-181.5C898.26,55.07,853.68,34.25,805,39.4c-51,5.4-107.52,38.93-122.72,84.13C666.66,170.08,617.24,211.57,568.79,236Z" transform="translate(-57.5 -38.62)" fill="#ffc451" opacity="0.1"/><ellipse cx="642.84" cy="761.32" rx="100.11" ry="24.73" fill="#ffc451" opacity="0.1"/><rect x="134.66" y="135.71" width="950.33" height="538.33" rx="12.49" ry="12.49" fill="url(#3dbb7376-c47c-4ca7-b468-761ae3cf9a96)"/><rect x="136.17" y="143.28" width="947.42" height="528.97" rx="12.49" ry="12.49" fill="#fff"/><rect x="136.17" y="143.28" width="947.42" height="528.97" rx="12.49" ry="12.49" fill="#fff"/><rect x="136.17" y="143.28" width="947.42" height="528.97" rx="12.49" ry="12.49" fill="#343a40" opacity="0.04"/><path d="M1136.29,175.83H198.49a4.81,4.81,0,0,0-4.81,4.81V201H1141.1V180.64A4.81,4.81,0,0,0,1136.29,175.83Z" transform="translate(-57.5 -38.62)" fill="#343a40"/><g id="4856ee63-6c9d-47e3-9e79-3603b2312fc4" data-name="buttons"><circle cx="155.09" cy="149.78" r="6.5" fill="#fff"/><circle cx="172.59" cy="149.78" r="6.5" fill="#fff"/><circle cx="190.09" cy="149.78" r="6.5" fill="#fff"/></g><rect x="199.59" y="279.47" width="790" height="304" rx="10.19" ry="10.19" fill="#ffc451" opacity="0.1"/><rect x="272.39" y="298.35" width="790" height="304" rx="10.19" ry="10.19" transform="translate(-45.85 -55.44) rotate(1.46)" fill="#fff"/><line x1="337.02" y1="314.26" x2="887.34" y2="328.25" fill="#f4f4f7" stroke="#343a40" stroke-miterlimit="10" opacity="0.2"/><line x1="335.93" y1="357.25" x2="886.25" y2="371.24" fill="#f4f4f7" stroke="#343a40" stroke-miterlimit="10" opacity="0.2"/><line x1="334.84" y1="400.23" x2="885.16" y2="414.22" fill="#f4f4f7" stroke="#343a40" stroke-miterlimit="10" opacity="0.2"/><line x1="333.74" y1="443.22" x2="884.07" y2="457.21" fill="#f4f4f7" stroke="#343a40" stroke-miterlimit="10" opacity="0.2"/><line x1="383.76" y1="432.82" x2="382.37" y2="487.47" fill="none" stroke="#343a40" stroke-miterlimit="10" stroke-dasharray="12" opacity="0.2"/><line x1="332.65" y1="486.21" x2="882.97" y2="500.19" fill="#f4f4f7" stroke="#343a40" stroke-miterlimit="10" opacity="0.2"/><line x1="444.61" y1="489.05" x2="446.68" y2="407.58" fill="none" stroke="#343a40" stroke-miterlimit="10" stroke-dasharray="12" opacity="0.2"/><path d="M866.16,439.76c-9.81.85-19.39-4.65-25.26-10.43-6.08-6-10.49-13.38-14.75-20.56-1.35-2.27-2.75-4.61-4.16-6.87-7.43-11.78-14.85-19.7-23.34-24.93a44.44,44.44,0,0,0-9.93-4.54,7,7,0,0,1-1.41,2.14,7,7,0,0,1-4.9,2.15h-.33a7,7,0,0,1-6.75-6.07,30.45,30.45,0,0,0-9.21,1.89c-8.73,3.29-15.36,10.36-21.39,17.33-7.3,8.42-14.34,17.25-20.9,26.26q-2,2.73-4,5.49c-7.12,9.94-14.48,20.21-24,28.24-12.78,10.84-28.15,15.51-41.12,12.5-15.56-3.61-26.69-17.36-34.64-28.94-1-1.5-2-3-3.08-4.53-7.42-11-15.09-22.37-26.41-29-14.91-8.75-35.5-7.24-49,3.57-6.58,5.27-11.52,12.43-16.31,19.35-1.64,2.38-3.34,4.84-5.09,7.2-9,12.09-18.07,18.65-27.85,20.07a52.94,52.94,0,0,1-11.67,0c-2.58-.18-5.25-.38-7.86-.31a37.79,37.79,0,0,0-31.57,19.67L439.85,527l432.31,11,2.42-95.23a6,6,0,0,1-8.42-3Z" transform="translate(-57.5 -38.62)" fill="#ffc451" opacity="0.2"/><line x1="511.95" y1="355.58" x2="508.52" y2="490.68" fill="none" stroke="#343a40" stroke-miterlimit="10" stroke-dasharray="12" opacity="0.2"/><line x1="572.24" y1="407.27" x2="570.08" y2="492.24" fill="none" stroke="#343a40" stroke-miterlimit="10" stroke-dasharray="12" opacity="0.2"/><line x1="632.2" y1="417.24" x2="630.26" y2="493.77" fill="none" stroke="#343a40" stroke-miterlimit="10" stroke-dasharray="12" opacity="0.2"/><line x1="690.39" y1="348.75" x2="686.67" y2="495.2" fill="none" stroke="#343a40" stroke-miterlimit="10" stroke-dasharray="12" opacity="0.2"/><line x1="749.61" y1="343.64" x2="745.72" y2="496.71" fill="none" stroke="#343a40" stroke-miterlimit="10" stroke-dasharray="12" opacity="0.2"/><line x1="815.2" y1="401.19" x2="812.72" y2="498.41" fill="none" stroke="#343a40" stroke-miterlimit="10" stroke-dasharray="12" opacity="0.2"/><path d="M788.12,365.68a7,7,0,0,0-5-1.95,7,7,0,0,0-6.79,5.93,6.79,6.79,0,0,0-.08,1.2c0,.27,0,.54.06.8a7,7,0,0,0,2.09,4.11,6.87,6.87,0,0,0,4.66,2h.33a7,7,0,0,0,4.91-2.14,7.17,7.17,0,0,0,1.41-2.14,6.91,6.91,0,0,0,.5-1.95,5.55,5.55,0,0,0,0-.91A7,7,0,0,0,788.12,365.68Zm-.35,7.2a4.54,4.54,0,0,1-.91,1.31,5,5,0,0,1-8.51-2.58,4.16,4.16,0,0,1-.09-.79,4.8,4.8,0,0,1,.12-1.2,5,5,0,0,1,4.78-3.9h.23a5,5,0,0,1,4.87,4.89c0,.1,0,.21,0,.31A4.65,4.65,0,0,1,787.77,372.88Z" transform="translate(-57.5 -38.62)" fill="#ffc451"/><circle cx="815.26" cy="399.88" r="6" fill="#ffc451"/><path d="M778.26,370.82a4.16,4.16,0,0,0,.09.79c-.68,0-1.36,0-2,.05a30.58,30.58,0,0,0-9.22,1.89c-8.73,3.29-15.36,10.36-21.4,17.33-7.3,8.41-14.34,17.25-20.91,26.25-1.33,1.82-2.64,3.66-4,5.5-7.13,9.94-14.49,20.2-24,28.24-12.79,10.83-28.17,15.5-41.15,12.49C640.13,459.76,629,446,621,434.42c-1-1.49-2.06-3-3.08-4.53-7.43-11-15.11-22.37-26.43-29-14.91-8.75-35.52-7.24-49,3.57C536,409.72,531,416.88,526.21,423.8c-1.65,2.38-3.35,4.85-5.1,7.2-9,12.09-18.08,18.65-27.86,20.07a53.57,53.57,0,0,1-11.67,0,76.47,76.47,0,0,0-7.87-.31,37.72,37.72,0,0,0-32.79,22.12l-1.84-.8a39.8,39.8,0,0,1,34.57-23.32,74.56,74.56,0,0,1,8.08.32,52.05,52.05,0,0,0,11.23,0c9.23-1.33,17.91-7.64,26.54-19.28,1.73-2.33,3.42-4.78,5.06-7.15,4.87-7,9.91-14.31,16.71-19.77a46.11,46.11,0,0,1,51.26-3.73c11.72,6.87,19.53,18.43,27.09,29.62,1,1.5,2,3,3.07,4.51,7.75,11.28,18.55,24.67,33.46,28.12,12.36,2.87,27.09-1.64,39.4-12.07,9.29-7.87,16.6-18,23.65-27.88,1.31-1.84,2.64-3.68,4-5.51,6.61-9,13.68-17.92,21-26.39,6.21-7.16,13-14.43,22.21-17.88a32.75,32.75,0,0,1,9.94-2c.67,0,1.36-.06,2,0A4.8,4.8,0,0,0,778.26,370.82Z" transform="translate(-57.5 -38.62)" fill="#ffc451"/><path d="M873.11,439.44c-11.73,4.38-24.13-2.16-31.19-9.1-6.08-6-10.49-13.39-14.75-20.57-1.35-2.26-2.75-4.61-4.17-6.86-7.43-11.79-14.85-19.71-23.35-24.94a44.6,44.6,0,0,0-9.93-4.53c-.64-.21-1.29-.39-2-.56a4.65,4.65,0,0,0,.49-1.95c.66.17,1.31.36,2,.56a46.34,46.34,0,0,1,10.47,4.78c8.78,5.39,16.4,13.51,24,25.57,1.43,2.28,2.83,4.63,4.2,6.92,4.2,7.06,8.54,14.37,14.43,20.15,6.63,6.52,18.24,12.71,29.09,8.66Z" transform="translate(-57.5 -38.62)" fill="#ffc451"/><rect x="394.64" y="344.15" width="20.4" height="9" rx="0.9" ry="0.9" transform="translate(-48.51 -48.8) rotate(1.46)" fill="#ffc451" opacity="0.5"/><rect x="393.54" y="387.13" width="20.4" height="9" rx="0.9" ry="0.9" transform="translate(-47.42 -48.76) rotate(1.46)" fill="#ffc451"/><rect x="392.45" y="430.12" width="20.4" height="9" rx="0.9" ry="0.9" transform="translate(-46.33 -48.71) rotate(1.46)" fill="#ffc451" opacity="0.5"/><rect x="391.36" y="473.1" width="20.4" height="9" rx="0.9" ry="0.9" transform="translate(-45.24 -48.67) rotate(1.46)" fill="#ffc451" opacity="0.5"/><rect x="390.27" y="516.09" width="20.4" height="9" rx="0.9" ry="0.9" transform="translate(-44.15 -48.63) rotate(1.46)" fill="#ffc451" opacity="0.5"/><rect x="428.1" y="535.06" width="20.4" height="9" rx="0.9" ry="0.9" transform="translate(-43.65 -49.59) rotate(1.46)" fill="#ffc451" opacity="0.5"/><rect x="491.58" y="536.67" width="20.4" height="9" rx="0.9" ry="0.9" transform="translate(-43.59 -51.2) rotate(1.46)" fill="#ffc451" opacity="0.5"/><rect x="555.48" y="538.29" width="20.4" height="9" rx="0.9" ry="0.9" transform="matrix(1, 0.03, -0.03, 1, -43.53, -52.82)" fill="#ffc451"/><rect x="617.05" y="539.86" width="20.4" height="9" rx="0.9" ry="0.9" transform="translate(-43.47 -54.39) rotate(1.46)" fill="#ffc451" opacity="0.5"/><rect x="677.22" y="541.39" width="20.4" height="9" rx="0.9" ry="0.9" transform="translate(-43.41 -55.91) rotate(1.46)" fill="#ffc451" opacity="0.5"/><rect x="733.63" y="542.82" width="20.4" height="9" rx="0.9" ry="0.9" transform="translate(-43.36 -57.35) rotate(1.46)" fill="#ffc451"/><rect x="793.1" y="544.33" width="20.4" height="9" rx="0.9" ry="0.9" transform="translate(-43.3 -58.86) rotate(1.46)" fill="#ffc451"/><rect x="859.69" y="546.03" width="20.4" height="9" rx="1.39" ry="1.39" transform="matrix(1, 0.03, -0.03, 1, -43.23, -60.55)" fill="#ffc451"/><path d="M1038.37,644.11a9.9,9.9,0,1,1-7,2.9,9.85,9.85,0,0,1,7-2.9m0-1.54A11.45,11.45,0,1,0,1049.82,654,11.44,11.44,0,0,0,1038.37,642.57Z" transform="translate(-57.5 -38.62)" fill="#ffc451"/><path d="M1035.3,657.38l.6-.8a3.18,3.18,0,0,0,2.19.91c1,0,1.79-.51,1.79-1.32s-.73-1.46-2.75-1.46v-.92c1.8,0,2.48-.6,2.48-1.38s-.61-1.15-1.5-1.15a2.93,2.93,0,0,0-1.89.77l-.64-.77a4,4,0,0,1,2.58-1c1.55,0,2.7.75,2.7,2.06,0,.92-.67,1.53-1.65,1.86v.05a2.15,2.15,0,0,1,1.92,2c0,1.42-1.34,2.28-2.94,2.28A3.87,3.87,0,0,1,1035.3,657.38Z" transform="translate(-57.5 -38.62)" fill="#ffc451"/><path d="M1085.66,644.78a9.9,9.9,0,1,1-7,2.9,9.84,9.84,0,0,1,7-2.9m0-1.54a11.45,11.45,0,1,0,11.45,11.45A11.44,11.44,0,0,0,1085.66,643.24Z" transform="translate(-57.5 -38.62)" fill="#343a40"/><path d="M1085.81,653.49c0-.49,0-1.11.07-1.6h-.07c-.28.43-.6.86-.88,1.29l-2,2.61h5.41v1.05h-6.81V656l4.06-5.34h1.49v8.5h-1.24Z" transform="translate(-57.5 -38.62)" fill="#343a40"/><path d="M1059.57,648.15a1.05,1.05,0,0,1,1.47,0l5.16,5.18a1,1,0,0,1,0,1.44l-5.08,5.1a1,1,0,0,1-1.48,0,1,1,0,0,1,0-1.47L1064,654l-4.43-4.38a1,1,0,0,1,0-1.48Z" transform="translate(-57.5 -38.62)" fill="#343a40"/><path d="M1050.77,654A11.25,11.25,0,1,0,1062,642.77,11.24,11.24,0,0,0,1050.77,654Zm1.73,0a9.53,9.53,0,1,1,2.79,6.72A9.42,9.42,0,0,1,1052.5,654Z" transform="translate(-57.5 -38.62)" fill="#343a40"/><rect x="166.09" y="189.05" width="227.24" height="23.85" rx="3.86" ry="3.86" fill="#343a40" opacity="0.2"/><path d="M673.31,742.93s-24.94,5.65-17.69,8.57,19.07,5,19.07,5S682.79,756.64,673.31,742.93Z" transform="translate(-57.5 -38.62)" opacity="0.05"/></svg>