<svg xmlns="http://www.w3.org/2000/svg" id="ae8e3b67-68ad-47ca-99a9-8e5b053c0a6f" data-name="Layer 1" width="974.75537" height="500" viewBox="300 0 650 500"><path d="M388.23446,156.30683a4.29285,4.29285,0,0,0-4.28783,4.28784V306.83934a4.2928,4.2928,0,0,0,4.28783,4.28778H886.90327a4.29287,4.29287,0,0,0,4.28777-4.28778V160.59464a4.29282,4.29282,0,0,0-4.28777-4.28784Z" transform="translate(-112.62232 -112.95256)" fill="#e6e6e6"/><path d="M394.69176,300.382H880.44562V167.05205H394.69176Z" transform="translate(-112.62232 -112.95256)" fill="#fff"/><path d="M819.13164,272.72212a7.10265,7.10265,0,1,0,0,14.2053h28.41054a7.10265,7.10265,0,0,0,0-14.2053H819.13164Z" transform="translate(-112.62232 -112.95256)" fill="#ffc451"/><rect x="414.05705" y="145.99257" width="327.96547" height="1.86875" fill="#e6e6e6"/><circle cx="345.50192" cy="120.76445" r="41.36917" fill="#ffc451"/><polygon points="414.575 135.557 413.539 134.002 447.619 111.282 470.989 122.5 504.604 101.024 505.058 101.217 571.472 129.548 624.722 103.39 676.43 124.353 741.403 66.805 742.642 68.204 676.802 126.52 624.795 105.436 571.527 131.603 504.779 103.13 471.119 124.635 447.77 113.427 414.575 135.557" fill="#3f3d56"/><path d="M532.7528,273.69917a6.07344,6.07344,0,0,0,0,12.14687h63.53747a6.07343,6.07343,0,1,0,0-12.14687Z" transform="translate(-112.62232 -112.95256)" fill="#e6e6e6"/><path d="M474.76928,228.88845c.77325-5.17689-3.16839-7.95986-8.558-9.8164l1.74833-7.01275-4.26991-1.06383-1.70212,6.82795c-1.121-.27963-2.27356-.54346-3.41884-.80486l1.71428-6.87294-4.26626-1.06383-1.74954,7.01033c-.92887-.21155-1.84073-.42067-2.72583-.64073l.00486-.02188-5.88692-1.46991-1.13556,4.55926s3.16717.72584,3.1003.77082a2.27049,2.27049,0,0,1,1.98905,2.48268l-1.99148,7.989a3.53766,3.53766,0,0,1,.44376.14225l-.44985-.11185-2.7927,11.19147a1.55379,1.55379,0,0,1-1.95623,1.014c.04256.062-3.10273-.77447-3.10273-.77447l-2.11914,4.88753,5.55622,1.38481c1.03343.259,2.0462.53009,3.04194.7854l-1.76656,7.09422,4.26382,1.06383,1.75076-7.01762c1.16353.31611,2.29422.6079,3.40061.88267l-1.74346,6.9848,4.26869,1.06382,1.76656-7.07962c7.279,1.3775,12.75378.82188,15.0553-5.76048,1.85653-5.30091-.09119-8.35865-3.921-10.35379,2.789-.64559,4.89-2.48024,5.45045-6.2699Zm-9.7544,13.67658c-1.32036,5.30091-10.24436,2.43647-13.13919,1.71671l2.34407-9.39694c2.89361.72219,12.17141,2.152,10.79634,7.68023Zm1.31915-13.75317c-1.20365,4.82187-8.63221,2.372-11.04315,1.77142l2.12523-8.52278C459.82705,222.6611,467.58874,223.78208,466.334,228.81186Z" transform="translate(-112.62232 -112.95256)" fill="#fff"/><path d="M584.4211,390.5244a4.29284,4.29284,0,0,0-4.28783,4.28783V541.0569a4.2928,4.2928,0,0,0,4.28783,4.28778h498.66881a4.29285,4.29285,0,0,0,4.28777-4.28778V394.8122a4.29281,4.29281,0,0,0-4.28777-4.28783Z" transform="translate(-112.62232 -112.95256)" fill="#e6e6e6"/><path d="M590.8784,534.59954h485.75386V401.26962H590.8784Z" transform="translate(-112.62232 -112.95256)" fill="#fff"/><path d="M1015.31828,506.93968a7.10265,7.10265,0,1,0,0,14.2053h28.41054a7.10265,7.10265,0,1,0,0-14.2053h-28.41054Z" transform="translate(-112.62232 -112.95256)" fill="#ffc451"/><rect x="610.24369" y="380.21013" width="327.96547" height="1.86875" fill="#e6e6e6"/><circle cx="541.68856" cy="354.98202" r="41.36917" fill="#ffc451"/><polygon points="610.762 369.775 609.725 368.22 643.805 345.5 667.176 356.718 700.79 335.242 701.245 335.435 767.658 363.766 820.909 337.608 872.617 358.57 937.59 301.023 938.829 302.423 872.989 360.738 820.982 339.654 767.713 365.821 700.966 337.348 667.305 358.853 643.957 347.646 610.762 369.775" fill="#3f3d56"/><path d="M728.93944,507.91674a6.07343,6.07343,0,0,0,0,12.14687h63.53747a6.07343,6.07343,0,1,0,0-12.14687Z" transform="translate(-112.62232 -112.95256)" fill="#e6e6e6"/><polygon points="541.684 382.247 558.431 358.662 541.684 368.55 541.684 368.55 524.947 358.662 541.683 382.247 541.683 382.247 541.684 382.247 541.684 382.247 541.684 382.247" fill="#fff"/><polygon points="541.683 365.381 541.683 365.381 541.684 365.381 541.684 365.381 558.421 355.488 541.684 327.717 541.684 327.717 541.684 327.717 541.683 327.717 541.683 327.717 524.947 355.488 541.683 365.381" fill="#fff"/></svg>