<svg xmlns="http://www.w3.org/2000/svg" id="ad5f9207-945d-4d10-b345-00d07e4e3f17" data-name="Layer 1" width="1116" height="700" viewBox="0 0 1116 700"><title>ask_me_anything</title><g transform="scale(-1,1)" transform-origin="center"><polygon points="867.476 509.927 108.575 611.833 108.575 111.893 1008.946 111.893 867.476 509.927" fill="#fbe2b3"/><path d="M626.53668,315.63473H218.9121v-92.315H626.53668Zm-405.22679-2.39779h402.829V225.71755h-402.829Z" transform="translate(-42 -56.2774)" fill="#baa988"/><rect x="209.28229" y="198.21365" width="45.55804" height="45.55804" fill="#ffc451"/><path d="M290.84585,294.05461H242.89V246.09877h47.95583Zm-45.558-2.39779h43.16025V248.49657H245.28781Z" transform="translate(-42 -56.2774)" fill="#baa988"/><rect x="324.37629" y="199.41254" width="213.40346" height="2.39779" fill="#baa988"/><rect x="324.37629" y="216.19708" width="213.40346" height="2.39779" fill="#baa988"/><rect x="324.37629" y="232.98162" width="213.40346" height="2.39779" fill="#baa988"/><path d="M626.53668,576.994H218.9121V484.679H626.53668Zm-405.22679-2.39779h402.829V487.07684h-402.829Z" transform="translate(-42 -56.2774)" fill="#baa988"/><rect x="209.28229" y="459.57294" width="45.55804" height="45.55804" fill="#ffc451"/><path d="M290.84585,555.4139H242.89V507.45806h47.95583Zm-45.558-2.39779h43.16025V509.85586H245.28781Z" transform="translate(-42 -56.2774)" fill="#baa988"/><rect x="324.37629" y="460.77183" width="213.40346" height="2.39779" fill="#baa988"/><rect x="324.37629" y="477.55637" width="213.40346" height="2.39779" fill="#baa988"/><rect x="324.37629" y="494.34091" width="213.40346" height="2.39779" fill="#baa988"/><path d="M772.802,446.31438H365.17739v-92.315H772.802Zm-405.22679-2.39779h402.829v-87.5194h-402.829Z" transform="translate(-42 -56.2774)" fill="#baa988"/><rect x="694.87374" y="385.17069" width="45.55804" height="45.55804" transform="translate(1393.30552 759.62202) rotate(-180)" fill="#ffc451"/><path d="M748.82405,424.73425H700.86822V376.77842h47.95583Zm-45.558-2.39779h43.16025V379.17621H703.266Z" transform="translate(-42 -56.2774)" fill="#baa988"/><rect x="369.93433" y="330.09219" width="213.40346" height="2.39779" fill="#baa988"/><rect x="369.93433" y="346.87673" width="213.40346" height="2.39779" fill="#baa988"/><rect x="369.93433" y="363.66127" width="213.40346" height="2.39779" fill="#baa988"/><circle cx="646.97713" cy="213.06527" r="19.08446" fill="#ffc451"/><circle cx="674.55174" cy="478.02125" r="19.08446" fill="#ffc451"/><circle cx="247.74482" cy="343.74492" r="19.08446" fill="#ffc451"/><path d="M219.12,532.682l.608-1.31435c-.25017-.11559-25.23868-11.949-44.15827-43.65888-17.47148-29.281-33.197-81.9945-8.89541-166.83332,10.15387-35.44779,14.48711-67.12207,12.87968-94.14228-1.31352-22.07823-6.58393-41.20375-15.66467-56.84509-17.953-30.92488-45.05846-37.86033-45.33012-37.92659L118.215,133.368c.26606.06521,26.8159,6.8866,44.445,37.28664,20.22577,34.878,21.10791,85.28567,2.6218,149.822-10.79455,37.68547-14.69445,72.28286-11.5914,102.83222,2.48594,24.47255,9.445,46.41672,20.68394,65.22362C193.53052,520.58706,218.86624,532.56465,219.12,532.682Z" transform="translate(-42 -56.2774)" fill="#ffc451"/><circle cx="96.76757" cy="94.90336" r="56.0595" fill="#ffc451"/><path d="M46.19225,157.605A76.38171,76.38171,0,1,1,143.32766,204.86,76.46791,76.46791,0,0,1,46.19225,157.605Zm1.36891-.4729A74.93341,74.93341,0,1,0,93.91989,61.83858,75.01826,75.01826,0,0,0,47.56116,157.13206Z" transform="translate(-42 -56.2774)" fill="#ffc451"/><circle cx="85.30109" cy="233.39773" r="46.48837" fill="#ffc451"/><circle cx="160.3838" cy="378.15791" r="46.48837" fill="#ffc451"/></g></svg>