<svg xmlns="http://www.w3.org/2000/svg" xmlns:xlink="http://www.w3.org/1999/xlink" id="83b95cf8-345b-454a-b8f1-f6ca7493daa9" data-name="Layer 1" width="1086.08" height="611.71" viewBox="0 0 1086.08 611.71"><defs><linearGradient id="0894c1c3-008a-4fd9-8eb6-3f5e53f78262" x1="836.86" y1="752.57" x2="836.86" y2="526.52" gradientUnits="userSpaceOnUse"><stop offset="0" stop-color="gray" stop-opacity="0.25"/><stop offset="0.54" stop-color="gray" stop-opacity="0.12"/><stop offset="1" stop-color="gray" stop-opacity="0.1"/></linearGradient><linearGradient id="60f358e9-30c7-45a8-81a4-1235e6b38863" x1="102.69" y1="723.72" x2="102.69" y2="581.57" xlink:href="#0894c1c3-008a-4fd9-8eb6-3f5e53f78262"/></defs><title>features overview</title><path d="M661.63,227.58c-62.66-.36-122.72-16.37-180.14-34.1S367.16,156,305.79,147.32c-39.47-5.56-84.45-5.39-115.68,13.58-30.05,18.26-39.17,48.74-43.78,76.93-3.48,21.21-5.28,43.49,6.12,63,7.91,13.54,21.64,24.75,31.27,37.67,33.49,44.95,12,101.9-22,147.41-16,21.35-34.56,41.8-46.72,64.4s-17.41,48.31-5.75,70.78c11.56,22.28,38.22,38.58,66.94,49.81,58.34,22.79,126.56,28.06,193,30.37,147.11,5.12,294.7-2.22,441.89-9.55,54.48-2.72,109.19-5.46,162.63-14,29.68-4.76,60.27-11.93,81.51-27.94,27-20.34,33-53.8,14-78-31.84-40.61-117.38-48.82-140-92.68-12.46-24.15-.94-51.66,15.76-74.74,35.82-49.51,96.79-93.67,98.71-149.31,1.32-38.22-29.42-75.72-75.95-92.66C918.9,144.57,852,148.57,817.08,180.77,781.16,213.92,717,227.9,661.63,227.58Z" transform="translate(-56.96 -144.15)" fill="#ffc451" opacity="0.1"/><g id="db976b58-83c4-4bad-bfc1-713fe8b9d2f6" data-name="flowers"><path d="M626,388.09s-27.48-48.69-68.88-62.72a84.75,84.75,0,0,1-42.91-32.1,142.27,142.27,0,0,1-12.66-22.77" transform="translate(-56.96 -144.15)" fill="none" stroke="#535461" stroke-miterlimit="10" stroke-width="2"/><path d="M475.53,261.5c4.71,4.58,26.68,9.31,26.68,9.31s-5.39-21.81-10.1-26.39a11.9,11.9,0,0,0-16.58,17.08Z" transform="translate(-56.96 -144.15)" fill="#ffc451"/><path d="M488,301c6.45,1.28,27.47-6.69,27.47-6.69S499,278.91,492.59,277.63A11.9,11.9,0,0,0,488,301Z" transform="translate(-56.96 -144.15)" fill="#ffc451"/><path d="M533.2,343.69c6.21-2.15,20.33-19.63,20.33-19.63s-21.9-5-28.11-2.86a11.9,11.9,0,1,0,7.78,22.49Z" transform="translate(-56.96 -144.15)" fill="#ffc451"/><path d="M574.72,368.31c6.48-1.07,23.35-15.92,23.35-15.92s-20.74-8.64-27.23-7.57a11.9,11.9,0,0,0,3.88,23.49Z" transform="translate(-56.96 -144.15)" fill="#ffc451"/><path d="M533.73,277.24c0,6.58-11.89,25.64-11.89,25.64s-11.91-19.05-11.91-25.63a11.9,11.9,0,0,1,23.8,0Z" transform="translate(-56.96 -144.15)" fill="#ffc451"/><path d="M581.92,306.64c-2,6.28-19,20.91-19,20.91s-5.66-21.75-3.7-28a11.9,11.9,0,0,1,22.72,7.11Z" transform="translate(-56.96 -144.15)" fill="#ffc451"/><path d="M624.83,341.64c-.87,6.52-15.21,23.83-15.21,23.83s-9.25-20.48-8.38-27a11.9,11.9,0,1,1,23.59,3.17Z" transform="translate(-56.96 -144.15)" fill="#ffc451"/><path d="M475.53,261.5c4.71,4.58,26.68,9.31,26.68,9.31s-5.39-21.81-10.1-26.39a11.9,11.9,0,0,0-16.58,17.08Z" transform="translate(-56.96 -144.15)" opacity="0.25"/><path d="M488,301c6.45,1.28,27.47-6.69,27.47-6.69S499,278.91,492.59,277.63A11.9,11.9,0,0,0,488,301Z" transform="translate(-56.96 -144.15)" opacity="0.25"/><path d="M533.2,343.69c6.21-2.15,20.33-19.63,20.33-19.63s-21.9-5-28.11-2.86a11.9,11.9,0,1,0,7.78,22.49Z" transform="translate(-56.96 -144.15)" opacity="0.25"/><path d="M574.72,368.31c6.48-1.07,23.35-15.92,23.35-15.92s-20.74-8.64-27.23-7.57a11.9,11.9,0,0,0,3.88,23.49Z" transform="translate(-56.96 -144.15)" opacity="0.25"/><path d="M533.73,277.24c0,6.58-11.89,25.64-11.89,25.64s-11.91-19.05-11.91-25.63a11.9,11.9,0,0,1,23.8,0Z" transform="translate(-56.96 -144.15)" opacity="0.25"/><path d="M581.92,306.64c-2,6.28-19,20.91-19,20.91s-5.66-21.75-3.7-28a11.9,11.9,0,0,1,22.72,7.11Z" transform="translate(-56.96 -144.15)" opacity="0.25"/><path d="M624.83,341.64c-.87,6.52-15.21,23.83-15.21,23.83s-9.25-20.48-8.38-27a11.9,11.9,0,1,1,23.59,3.17Z" transform="translate(-56.96 -144.15)" opacity="0.25"/><path d="M624.43,387.13s-5.4-55.66-37.55-85.26a84.72,84.72,0,0,1-26.23-46.73,142.25,142.25,0,0,1-2.34-25.95" transform="translate(-56.96 -144.15)" fill="none" stroke="#535461" stroke-miterlimit="10" stroke-width="2"/><path d="M538.16,210.41c2.45,6.1,20.62,19.33,20.62,19.33s3.91-22.13,1.45-28.23a11.9,11.9,0,1,0-22.07,8.9Z" transform="translate(-56.96 -144.15)" fill="#ffc451"/><path d="M533.52,251.54c5.38,3.78,27.81,5,27.81,5s-8.74-20.7-14.11-24.48a11.9,11.9,0,1,0-13.7,19.47Z" transform="translate(-56.96 -144.15)" fill="#ffc451"/><path d="M557.58,308.93c6.55.55,26.54-9.72,26.54-9.72s-18-13.45-24.55-14a11.9,11.9,0,1,0-2,23.72Z" transform="translate(-56.96 -144.15)" fill="#ffc451"/><path d="M585.56,348.25c6.36,1.65,27.8-5.09,27.8-5.09s-15.47-16.3-21.83-18a11.9,11.9,0,1,0-6,23Z" transform="translate(-56.96 -144.15)" fill="#ffc451"/><path d="M585,248.39c-2.66,6-21.26,18.62-21.26,18.62s-3.17-22.24-.51-28.25A11.9,11.9,0,0,1,585,248.39Z" transform="translate(-56.96 -144.15)" fill="#ffc451"/><path d="M617.13,294.8c-4.34,4.93-25.86,11.4-25.86,11.4s3.63-22.17,8-27.11a11.9,11.9,0,1,1,17.89,15.71Z" transform="translate(-56.96 -144.15)" fill="#ffc451"/><path d="M642.18,344.18c-3.44,5.6-23.56,15.62-23.56,15.62s-.17-22.47,3.27-28.08a11.91,11.91,0,0,1,20.29,12.46Z" transform="translate(-56.96 -144.15)" fill="#ffc451"/></g><path d="M883.47,741.05c2.95,6-17.92,12.45-43.77,14.31-23.16,1.67-42.2-1.05-44.61-5.93s12.34-10.8,35-13.47C855.38,733,880.52,735.11,883.47,741.05Z" transform="translate(-56.96 -144.15)" fill="#ffc451" opacity="0.1"/><polygon points="218.75 279.55 537.33 166.72 537.33 556.51 218.75 549.87 218.75 279.55" fill="#fff"/><polygon points="218.75 279.55 537.33 166.72 537.33 556.51 218.75 549.87 218.75 279.55" fill="#ffc451" opacity="0.2"/><polygon points="0 343.92 181.75 279.55 181.75 549.87 0 549.87 0 343.92" fill="#fff"/><polygon points="0 343.92 181.75 279.55 181.75 549.87 0 549.87 0 343.92" fill="#ffc451" opacity="0.2"/><polygon points="537.33 166.72 855.9 279.55 855.9 549.87 537.33 556.51 537.33 166.72" fill="#fff"/><polygon points="537.33 166.72 855.9 279.55 855.9 549.87 537.33 556.51 537.33 166.72" fill="#ffc451" opacity="0.5"/><polygon points="1077.94 344.73 893.9 279.55 893.9 549.87 1077.94 549.87 1077.94 344.73" fill="#fff"/><polygon points="1077.94 344.73 893.9 279.55 893.9 549.87 1077.94 549.87 1077.94 344.73" fill="#ffc451" opacity="0.5"/><path d="M162.87,535c-1.29,0-2.34,1.76-2.34,3.93v48.92a29,29,0,0,1-3.31,13.87c-2.09,3.67-5.29,6-8.35,6h-2c-3,0-5.94-2.24-8.24-6.19A28.28,28.28,0,0,1,135,587.56V524.44a19,19,0,0,1,2.6-9.94c1.67-2.64,3.86-4.1,6.16-4.1s4.41,1.46,6,4.08a19.83,19.83,0,0,1,2.46,10v58.94c0,4.3-2,8.1-4.36,8.1-2,0-4.24-3.24-4.24-8.1V549.76c0-2.16-1.05-3.93-2.34-3.93s-2.35,1.77-2.35,3.93v33.62c0,8.94,3.84,15.68,8.93,15.68,2.48,0,4.77-1.54,6.42-4.35a22.71,22.71,0,0,0,2.63-11.33V524.44A30.58,30.58,0,0,0,153,508.89c-2.48-4.15-5.79-6.42-9.32-6.42s-6.84,2.27-9.35,6.42a30.47,30.47,0,0,0-3.9,15.58v63.11c0,7.23,1.84,14.57,4.9,19.63s7.2,8,11.44,8h2.05c4.15,0,8.31-2.94,11.41-8.08a33.1,33.1,0,0,0,3.59-8.7,42,42,0,0,0,1.34-10.6v-49c0-2.17-1-3.93-2.33-3.93Z" transform="translate(-56.96 -144.15)" fill="#fff"/><path d="M474.36,470.6l-9.55,12.69a.73.73,0,0,1-.74.31l-9.87-2.36a1.06,1.06,0,0,1-.68-.9l-1.76-13.07a1.4,1.4,0,0,1,.23-1l9.53-12.67a2.73,2.73,0,0,0-.22-3.41,10.31,10.31,0,0,0-6.76-3,1.89,1.89,0,0,0-.42,0c-2.66.2-8.36,2.17-12.76,8.36-4.27,6-8.74,17.06-4.78,29.42.47,1.49,1,3.46-.58,5.55s-42.45,53-42.45,53c-3.83,4.37-3.55,12.45,0,17.15a8.49,8.49,0,0,0,6.65,3.6,7.44,7.44,0,0,0,6.29-3.69s38.14-53.8,40-56.25a3,3,0,0,1,2.36-1.43,3.27,3.27,0,0,1,1.82.67,12,12,0,0,0,6.89,2.09c5.7,0,11.69-3.5,15.35-8.34a30.18,30.18,0,0,0,6.29-16.92,18.6,18.6,0,0,0-2.27-9.63,1.47,1.47,0,0,0-2.57-.22Zm-72,83.95a2.53,2.53,0,0,1-4.23,0,5,5,0,0,1,0-5.6,2.53,2.53,0,0,1,4.23,0A5,5,0,0,1,402.37,554.55Z" transform="translate(-56.96 -144.15)" fill="#fff"/><path d="M812.47,495.13c-2.64-30.52-23.33-54.3-48.5-54.3-16.66,0-31.33,10.39-40.14,26.26a19.15,19.15,0,0,0-8.75-2.15c-12.72,0-23,14-23.23,29.78-13,5.16-21.56,21-21.56,37.62,0,20.37,13.24,38.35,29.56,38.35H807.29c16.33,0,29.57-18,29.57-38.35,0-18.14-10.54-34.13-24.39-37.21Zm-24.27-7-43.49,54.5h0c-.56.69-2,2.23-3.78,2.23a5.33,5.33,0,0,1-3.8-2.31L718.88,519.8a1.91,1.91,0,0,1,0-2.31l5.79-7.22a1.17,1.17,0,0,1,.91-.49,1.16,1.16,0,0,1,.91.49l14.45,18,39.68-49.87a1.2,1.2,0,0,1,.91-.49,1.1,1.1,0,0,1,.91.49l5.69,7.35a1.87,1.87,0,0,1,.07,2.35Z" transform="translate(-56.96 -144.15)" fill="#fff"/><ellipse cx="1018.88" cy="386.12" rx="9.89" ry="13.19" fill="#fff"/><path d="M1075.84,548.55a10.47,10.47,0,0,1-3.21-.52l-9.76,13.27a.65.65,0,0,0,0,.77l15.51,22a4.46,4.46,0,0,1,0,5.06,2.44,2.44,0,0,1-1.9,1,2.41,2.41,0,0,1-1.89-1l-15.45-22a.36.36,0,0,0-.6,0l-3.77,5.12c-3.15,4.26-7.33,3.62-11.83,3.65s-8.87-2.53-12.07-6.85l-3.62-4.92a.36.36,0,0,0-.6,0l-15.45,22a2.44,2.44,0,0,1-1.9,1,2.41,2.41,0,0,1-1.89-1,4.46,4.46,0,0,1,0-5.06l15.51-22a.76.76,0,0,0,0-.77l-22.19-30.12c-.27-.36-.7-.11-.7.38v60.28c0,4.84,3,8.8,6.59,8.8l72.52,3c3.63,0,6.59-4,6.59-8.8V542.91C1083.24,546.38,1079.74,548.55,1075.84,548.55Z" transform="translate(-56.96 -144.15)" fill="#fff"/><path d="M1062.14,530.27a23.27,23.27,0,0,1,1.69-8.8l-57.23-3a5.57,5.57,0,0,0-4.08,1.93l32.33,43.9a10,10,0,0,0,8.05,4.5c3,0,5.92,1.41,8.06-1.5l16.58-22.52c-3.29-3.35-5.4-8.6-5.4-14.51Z" transform="translate(-56.96 -144.15)" fill="#fff"/><path d="M1142.82,688.38s-11.69-.7-10.31,7.48a2,2,0,0,0,1,2.11s0-.61,1.2-.4a5.63,5.63,0,0,0,1.27.06,2.71,2.71,0,0,0,1.55-.64h0s3.28-1.36,4.56-6.73c0,0,.95-1.17.91-1.47l-2,.84a3.55,3.55,0,0,1,.14,2.61s-.06-2.56-.44-2.5c-.08,0-1,.5-1,.5s1.16,2.47.29,4.27c0,0,.33-3-.65-4.09l-1.39.81s1.36,2.55.44,4.64c0,0,.24-3.2-.73-4.45l-1.26,1s1.28,2.53.5,4.26c0,0-.1-3.73-.77-4a7.72,7.72,0,0,0-1.27,1.37s.87,1.83.33,2.79c0,0-.33-2.48-.6-2.49a8.12,8.12,0,0,0-1.21,2.77,6,6,0,0,1,.95-2.93,3.29,3.29,0,0,0-1.68.87s.17-1.16,2-1.27a7.8,7.8,0,0,1,1.14-1.32,7.14,7.14,0,0,0-2.84.33s1-1.1,3.17-.6l1.24-1a10.3,10.3,0,0,0-3.32,0s1.14-1,3.65-.26l1.36-.81a12.39,12.39,0,0,0-3.17-.28,4.86,4.86,0,0,1,3.56.06l1-.43s-1.46-.29-1.88-.33-.45-.17-.45-.17a5.06,5.06,0,0,1,2.73.31A12.47,12.47,0,0,0,1142.82,688.38Z" transform="translate(-56.96 -144.15)" fill="#ffc451"/><ellipse cx="1077.81" cy="554.53" rx="8.27" ry="1.4" fill="#ffc451" opacity="0.1"/><path d="M962.78,688.72s-14.1-.85-12.44,9a2.41,2.41,0,0,0,1.25,2.54s0-.73,1.45-.48a6.27,6.27,0,0,0,1.53.07,3.18,3.18,0,0,0,1.88-.77h0s4-1.64,5.5-8.12c0,0,1.15-1.41,1.1-1.78l-2.38,1a4.27,4.27,0,0,1,.17,3.14s-.07-3.08-.53-3c-.09,0-1.24.59-1.24.59s1.4,3,.35,5.17c0,0,.4-3.69-.79-5l-1.67,1s1.63,3.09.53,5.62c0,0,.28-3.87-.88-5.38l-1.52,1.19s1.54,3,.6,5.13c0,0-.12-4.5-.93-4.84a9.18,9.18,0,0,0-1.53,1.65s1,2.21.4,3.38c0,0-.4-3-.73-3a10,10,0,0,0-1.46,3.35,7.26,7.26,0,0,1,1.14-3.54,4,4,0,0,0-2,1s.21-1.41,2.36-1.53a9.21,9.21,0,0,1,1.38-1.6,8.62,8.62,0,0,0-3.43.4s1.14-1.33,3.82-.73l1.5-1.22a12.5,12.5,0,0,0-4,0s1.37-1.17,4.41-.32l1.63-1a14.66,14.66,0,0,0-3.83-.33s1.51-.82,4.31.06l1.16-.52s-1.75-.34-2.27-.4-.54-.2-.54-.2a6.12,6.12,0,0,1,3.3.37A14.19,14.19,0,0,0,962.78,688.72Z" transform="translate(-56.96 -144.15)" fill="#ffc451"/><ellipse cx="896.11" cy="557.01" rx="9.98" ry="1.69" fill="#ffc451" opacity="0.1"/><path d="M108.47,585.2l-1.07-.78a1.66,1.66,0,0,1,.33.15,2.27,2.27,0,0,1,.6.47l.34.31Z" transform="translate(-56.96 -144.15)" opacity="0.1"/></svg>