<svg xmlns="http://www.w3.org/2000/svg" xmlns:xlink="http://www.w3.org/1999/xlink" id="08e565a9-d273-44a5-8e62-fb3ff03af726" data-name="Layer 1" width="960.22" height="727.85" viewBox="0 0 960.22 727.85"><defs><linearGradient id="47567f34-21cc-4103-b039-7b07a02a692b" x1="224.88" y1="440.26" x2="438.9" y2="440.26" gradientUnits="userSpaceOnUse"><stop offset="0" stop-color="gray" stop-opacity="0.25"/><stop offset="0.54" stop-color="gray" stop-opacity="0.12"/><stop offset="1" stop-color="gray" stop-opacity="0.1"/></linearGradient><linearGradient id="9327c94c-6e79-4ecb-b0e2-b824d910a5fb" x1="636.83" y1="740.55" x2="636.83" y2="204.8" xlink:href="#47567f34-21cc-4103-b039-7b07a02a692b"/></defs><title>newsletter</title><ellipse cx="516.58" cy="627.85" rx="350" ry="100" fill="#f5f5f5"/><path d="M969.58,324.92s-62,62-27,154-60,245-60,245,1-.15,2.91-.48c127.34-22.48,190.61-168.12,119.8-276.31C979,406.91,957.35,359.72,969.58,324.92Z" transform="translate(-120 -86.08)" fill="#ffc451"/><path d="M969.58,324.92s-35,76,0,138,6,236-87,261" transform="translate(-120 -86.08)" fill="none" stroke="#535461" stroke-miterlimit="10" stroke-width="2"/><path d="M1080,575.69s-70.75-11.27-77.2,52.14-136,72.19-136,72.19.84.58,2.43,1.62c107,70.24,209.29,44.74,193.88-48.53C1057.34,618.44,1057.8,583.61,1080,575.69Z" transform="translate(-120 -86.08)" fill="#ffc451"/><path d="M1080,575.69s-70.75-11.27-77.2,52.14-136,72.19-136,72.19.84.58,2.43,1.62c107,70.24,209.29,44.74,193.88-48.53C1057.34,618.44,1057.8,583.61,1080,575.69Z" transform="translate(-120 -86.08)" fill="#f5f5f5" opacity="0.2"/><path d="M1080,575.69s-54.92,12.06-50.41,62S948,747.47,866.76,700" transform="translate(-120 -86.08)" fill="none" stroke="#535461" stroke-miterlimit="10" stroke-width="2"/><path d="M271.4,86.16c-8.06-.28-16.32,0-23.88,2.82-20.57,7.67-30.32,32.76-27.15,54.49s16.21,40.6,29.74,57.89,28.19,34.36,35.61,55c3.7,10.31,5.43,21.86,1.67,32.15-5.8,15.87-23.29,24.74-40.08,26.58s-33.65-1.75-50.5-3c-7.07-.5-14.34-.56-21,1.76-7.31,2.53-13.4,7.69-19,13.07-21.85,21.1-39.34,49.9-36.51,80.14,3.2,34.28,31.74,61.38,63,75.91,10.35,4.82,21.3,8.72,30.41,15.6,24,18.14,29.39,52.13,27,82.14s-10.53,60.05-6,89.8c5.33,34.6,28.92,65.85,60.74,80.45,28.35,13,63.83,12.19,89-6.2,12.27-9,21.55-21.41,29.62-34.28a295.87,295.87,0,0,0,29.45-61.88c3.51-10.31,6.81-21.4,15-28.57,5-4.41,11.48-6.88,17.89-8.8,19.32-5.78,39.67-7.37,59.17-12.51S574.7,584,585.3,566.87c15-24.31,8-55.4,8.07-84,.12-65.16,39.11-123.5,53.5-187,4.7-20.76,6.45-43.73-4.05-62.24C635.68,221,623.65,212,611,205,583.2,189.56,551.6,182.69,520.51,176c-43.21-9.28-95.68-10.48-129.17-40.5C359.2,106.7,315.23,86.16,271.4,86.16Z" transform="translate(-120 -86.08)" fill="#ffc451" opacity="0.2"/><g opacity="0.5"/><g opacity="0.1"><path d="M296.36,570.55l.16.33c.05-.33.1-.68.13-1A7.11,7.11,0,0,1,296.36,570.55Z" transform="translate(-120 -86.08)"/></g><path d="M428.19,425.21s9.65,36-19.29,41.16a3.52,3.52,0,0,1-1.29-.64s-16.72-32.8-3.86-45.66Z" transform="translate(-120 -86.08)" fill="#a1616a"/><path d="M448.13,590.38a1.5,1.5,0,0,0,0-3,1.5,1.5,0,0,0,0,3Z" transform="translate(-120 -86.08)"/><g opacity="0.5"><path d="M910,415.63v-.83L637.16,205a1,1,0,0,0-1.19,0L363.12,414.8V740h.52v.52H910.53V415.32Z" transform="translate(-120 -86.08)" fill="url(#9327c94c-6e79-4ecb-b0e2-b824d910a5fb)"/></g><polygon points="780.58 644.85 252.58 644.85 252.58 330.85 516.58 127.85 780.58 330.85 780.58 644.85" fill="#fff"/><polygon points="761.58 626.24 271.58 626.24 271.58 334.84 516.58 146.45 761.58 334.84 761.58 626.24" fill="#e0e0e0"/><rect x="465.58" y="260.92" width="309" height="393" transform="translate(-215.73 86.13) rotate(-14.69)" fill="#ffc451"/><rect x="363.58" y="199.85" width="309" height="393" fill="#f5f5f5"/><polygon points="255.08 331.35 519.08 488.35 255.08 645.35 255.08 331.35" opacity="0.05"/><polygon points="253.08 331.35 517.08 488.35 253.08 645.35 253.08 331.35" fill="#fff"/><polygon points="779.08 331.35 515.08 488.35 779.08 645.35 779.08 331.35" opacity="0.05"/><polygon points="781.08 331.35 517.08 488.35 781.08 645.35 781.08 331.35" fill="#fff"/><polygon points="253.08 640.35 517.08 434.35 781.08 640.35 253.08 640.35" opacity="0.05"/><polygon points="253.08 645.35 517.08 439.35 781.08 645.35 253.08 645.35" fill="#fff"/><path d="M426.73,755.28s-13.26-45,2.49-78.14a71.09,71.09,0,0,0,5.75-44.6,119.57,119.57,0,0,0-6.31-20.93" transform="translate(-120 -86.08)" fill="none" stroke="#535461" stroke-miterlimit="10" stroke-width="2"/><path d="M438.45,590.67c0,5.52-10,21.51-10,21.51s-10-16-10-21.51a10,10,0,1,1,20,0Z" transform="translate(-120 -86.08)" fill="#ffc451"/><path d="M455,621.23c-3,4.63-20.08,12.63-20.08,12.63s.31-18.86,3.31-23.49A10,10,0,0,1,455,621.23Z" transform="translate(-120 -86.08)" fill="#ffc451"/><path d="M454.24,673.44c-4.93,2.48-23.71.77-23.71.77s9.79-16.12,14.71-18.6a10,10,0,1,1,9,17.84Z" transform="translate(-120 -86.08)" fill="#ffc451"/><path d="M444.8,712.83c-4.44,3.28-23.24,4.76-23.24,4.76s6.92-17.54,11.36-20.82a10,10,0,0,1,11.88,16.06Z" transform="translate(-120 -86.08)" fill="#ffc451"/><path d="M413.91,634.92c4,3.84,22.39,7.83,22.39,7.83s-4.51-18.31-8.47-22.15a10,10,0,0,0-13.92,14.33Z" transform="translate(-120 -86.08)" fill="#ffc451"/><path d="M403.45,681.13c4.93,2.48,23.71.77,23.71.77s-9.79-16.12-14.71-18.6a10,10,0,0,0-9,17.84Z" transform="translate(-120 -86.08)" fill="#ffc451"/><path d="M399.45,727.43c4.44,3.28,23.24,4.76,23.24,4.76s-6.92-17.54-11.36-20.82a10,10,0,1,0-11.88,16.06Z" transform="translate(-120 -86.08)" fill="#ffc451"/><rect x="381.58" y="217.85" width="124" height="10" fill="#ffc451" opacity="0.5"/><rect x="381.58" y="257.85" width="268" height="10" fill="#ffc451" opacity="0.5"/><rect x="381.58" y="283.85" width="268" height="10" fill="#ffc451" opacity="0.5"/><rect x="381.58" y="309.85" width="268" height="10" fill="#ffc451" opacity="0.4"/><rect x="381.58" y="335.85" width="268" height="10" fill="#ffc451" opacity="0.4"/><rect x="381.58" y="361.85" width="153" height="10" fill="#ffc451" opacity="0.3"/><rect x="381.58" y="387.85" width="209" height="10" fill="#ffc451" opacity="0.3"/></svg>
