<svg xmlns="http://www.w3.org/2000/svg" xmlns:xlink="http://www.w3.org/1999/xlink" id="e66cdcae-b662-46fb-b424-18ba1a805fb0" data-name="Layer 1" width="832.5" height="677.84461" viewBox="0 0 832.5 677.84461" class="injected-svg modal__media modal__lg_media" data-src="https://42f2671d685f51e10fc6-b9fcecea3e50b3b59bdc28dead054ebc.ssl.cf5.rackcdn.com/illustrations/bookmarks_r6up.svg"><title>bookmarks</title><circle cx="436.5" cy="304.34461" r="30" fill="#ffc451"/><circle cx="557.5" cy="304.34461" r="30" fill="#ffc451"/><circle cx="678.5" cy="304.34461" r="30" fill="#ffc451"/><circle cx="12.5" cy="20.34461" r="3" fill="#f86b75"/><circle cx="21.5" cy="20.34461" r="3" fill="#fad375"/><circle cx="30.5" cy="20.34461" r="3" fill="#8bcc55"/><rect x="67" y="66.84461" width="206" height="64" fill="#ffc451"/><rect x="0.5" y="10.34461" width="364" height="216" fill="none" stroke="#3f3d56" stroke-miterlimit="10"/><line x1="0.5" y1="26.70288" x2="364.5" y2="26.70288" fill="none" stroke="#3f3d56" stroke-miterlimit="10"/><circle cx="13.5" cy="18.34461" r="3" fill="none" stroke="#3f3d56" stroke-miterlimit="10"/><circle cx="22.5" cy="18.34461" r="3" fill="none" stroke="#3f3d56" stroke-miterlimit="10"/><circle cx="31.5" cy="18.34461" r="3" fill="none" stroke="#3f3d56" stroke-miterlimit="10"/><rect x="79.5" y="54.34461" width="206" height="64" fill="none" stroke="#3f3d56" stroke-miterlimit="10"/><rect x="41" y="158.84461" width="276" height="8.27586" fill="#f2f2f2"/><rect x="41" y="178.70668" width="276" height="8.27586" fill="#f2f2f2"/><rect x="41" y="198.56875" width="276" height="8.27586" fill="#f2f2f2"/><rect x="44" y="154.84461" width="276" height="8.27586" fill="none" stroke="#3f3d56" stroke-miterlimit="10"/><rect x="44" y="174.70668" width="276" height="8.27586" fill="none" stroke="#3f3d56" stroke-miterlimit="10"/><rect x="44" y="194.56875" width="276" height="8.27586" fill="none" stroke="#3f3d56" stroke-miterlimit="10"/><circle cx="96.5" cy="394.34461" r="3" fill="#f86b75"/><circle cx="105.5" cy="394.34461" r="3" fill="#fad375"/><circle cx="114.5" cy="394.34461" r="3" fill="#8bcc55"/><rect x="151" y="440.84461" width="206" height="64" fill="#ffc451"/><polyline points="448.5 428.345 448.5 600.345 84.5 600.345 84.5 384.345 380.5 384.345" fill="none" stroke="#3f3d56" stroke-miterlimit="10"/><line x1="84.5" y1="400.70288" x2="381" y2="400.70288" fill="none" stroke="#3f3d56" stroke-miterlimit="10"/><circle cx="97.5" cy="392.34461" r="3" fill="none" stroke="#3f3d56" stroke-miterlimit="10"/><circle cx="106.5" cy="392.34461" r="3" fill="none" stroke="#3f3d56" stroke-miterlimit="10"/><circle cx="115.5" cy="392.34461" r="3" fill="none" stroke="#3f3d56" stroke-miterlimit="10"/><rect x="163.5" y="428.34461" width="206" height="64" fill="none" stroke="#3f3d56" stroke-miterlimit="10"/><circle cx="392.5" cy="221.34461" r="3" fill="#f86b75"/><circle cx="401.5" cy="221.34461" r="3" fill="#fad375"/><circle cx="410.5" cy="221.34461" r="3" fill="#8bcc55"/><rect x="380.5" y="211.34461" width="364" height="216" fill="none" stroke="#3f3d56" stroke-miterlimit="10"/><line x1="380.5" y1="227.70288" x2="744.5" y2="227.70288" fill="none" stroke="#3f3d56" stroke-miterlimit="10"/><circle cx="393.5" cy="219.34461" r="3" fill="none" stroke="#3f3d56" stroke-miterlimit="10"/><circle cx="402.5" cy="219.34461" r="3" fill="none" stroke="#3f3d56" stroke-miterlimit="10"/><circle cx="411.5" cy="219.34461" r="3" fill="none" stroke="#3f3d56" stroke-miterlimit="10"/><circle cx="441.5" cy="299.34461" r="30" fill="none" stroke="#3f3d56" stroke-miterlimit="10"/><circle cx="562.5" cy="299.34461" r="30" fill="none" stroke="#3f3d56" stroke-miterlimit="10"/><circle cx="683.5" cy="299.34461" r="30" fill="none" stroke="#3f3d56" stroke-miterlimit="10"/><rect x="396" y="354.84461" width="82" height="8" fill="#f2f2f2"/><rect x="518" y="354.84461" width="82" height="8" fill="#f2f2f2"/><rect x="640" y="354.84461" width="82" height="8" fill="#f2f2f2"/><rect x="400" y="351.84461" width="82" height="8" fill="none" stroke="#3f3d56" stroke-miterlimit="10"/><rect x="522" y="351.84461" width="82" height="8" fill="none" stroke="#3f3d56" stroke-miterlimit="10"/><rect x="644" y="351.84461" width="82" height="8" fill="none" stroke="#3f3d56" stroke-miterlimit="10"/><rect x="98" y="529.84461" width="63" height="54" fill="#f2f2f2"/><rect x="214.5" y="530.34461" width="63" height="54" fill="#f2f2f2"/><rect x="331" y="530.84461" width="63" height="54" fill="#f2f2f2"/><rect x="107" y="519.84461" width="63" height="54" fill="none" stroke="#3f3d56" stroke-miterlimit="10"/><rect x="223.5" y="520.34461" width="63" height="54" fill="none" stroke="#3f3d56" stroke-miterlimit="10"/><rect x="340" y="520.84461" width="63" height="54" fill="none" stroke="#3f3d56" stroke-miterlimit="10"/><polygon points="192.598 10.671 179.278 18.05 193.483 13.04 192.598 10.671" fill="#79758c"/><ellipse cx="380.03836" cy="121.88906" rx="3.71613" ry="7.48683" transform="translate(-202.81554 12.28627) rotate(-17.99425)" fill="#3f3d56"/><ellipse cx="391.62274" cy="116.18033" rx="2.8036" ry="5.28632" transform="translate(-200.48537 15.58571) rotate(-17.99425)" fill="#3f3d56"/><polygon points="197.145 6.488 205.98 3.299 207.858 8.5 199.307 14.276 197.145 6.488" fill="#3f3d56"/><polygon points="282.598 382.671 269.278 390.05 283.483 385.04 282.598 382.671" fill="#79758c"/><ellipse cx="470.03836" cy="493.88906" rx="3.71613" ry="7.48683" transform="translate(-313.33226 58.28467) rotate(-17.99425)" fill="#3f3d56"/><ellipse cx="481.62274" cy="488.18033" rx="2.8036" ry="5.28632" transform="translate(-311.00209 61.58411) rotate(-17.99425)" fill="#3f3d56"/><polygon points="287.145 378.488 295.98 375.299 297.858 380.5 289.307 386.276 287.145 378.488" fill="#3f3d56"/></svg>
